<svg width="24" height="24" viewBox="0 0 24 24" fill="none" xmlns="http://www.w3.org/2000/svg">
  <path d="M19.325 9.4682C19.325 9.4682 18.782 16.2032 18.467 19.0402C18.317 20.3952 17.48 21.1892 16.109 21.2142C13.5 21.2612 10.888 21.2642 8.28003 21.2092C6.96103 21.1822 6.13803 20.3782 5.99103 19.0472C5.67403 16.1852 5.13403 9.4682 5.13403 9.4682" stroke="#0D698C" stroke-width="1.5" stroke-linecap="round" stroke-linejoin="round"/>
  <path d="M20.7082 6.2397H3.75024" stroke="#0D698C" stroke-width="1.5" stroke-linecap="round" stroke-linejoin="round"/>
  <path d="M17.4389 6.2397C16.6539 6.2397 15.9779 5.6847 15.8239 4.9157L15.5809 3.6997C15.4309 3.1387 14.9229 2.7507 14.3439 2.7507H10.1109C9.53187 2.7507 9.02387 3.1387 8.87387 3.6997L8.63087 4.9157C8.47687 5.6847 7.80087 6.2397 7.01587 6.2397" stroke="#0D698C" stroke-width="1.5" stroke-linecap="round" stroke-linejoin="round"/>
</svg>
